# Blender v2.90.0 Alpha OBJ File: 'Faro Rocas Arboles lol.blend'
# www.blender.org
mtllib BigRock_2.mtl
o Cylinder.002_Cylinder.026
v 4.701729 0.000843 -2.789403
v 4.610515 0.000843 -3.149262
v 4.940977 0.000843 -2.780418
v 5.248574 0.000843 -2.823936
v 5.319582 0.000843 -3.029416
v 4.701729 0.125035 -2.789403
v 4.658054 0.172877 -3.098956
v 4.940977 0.138152 -2.780418
v 4.940977 0.279908 -3.098956
v 5.177566 0.114241 -2.816105
v 5.291179 0.232146 -3.065814
v 4.627853 0.000843 -3.551709
v 4.730626 0.000843 -3.883916
v 4.940977 0.000843 -3.945837
v 5.288058 0.000843 -3.979021
v 4.679728 0.168262 -3.602015
v 4.730626 0.118883 -3.883916
v 4.940977 0.321790 -3.602015
v 4.940977 0.180034 -3.945837
v 5.288058 0.376630 -3.602015
v 5.288058 0.213434 -3.979021
v 5.600430 0.000843 -3.100570
v 5.982219 0.000843 -3.211752
v 6.283259 0.000843 -3.294071
v 5.635139 0.224806 -3.163856
v 5.982219 0.175340 -3.211752
v 6.210066 0.123173 -3.275266
v 5.635139 0.000843 -3.909991
v 5.983734 0.000843 -3.672112
v 5.897720 0.000843 -3.854028
v 6.257759 0.000843 -3.535214
v 5.635139 0.286087 -3.602015
v 5.635139 0.143892 -3.909991
v 5.949328 0.157336 -3.635825
v 5.811707 0.083514 -3.854190
v 6.210066 0.123173 -3.490680
vt 0.853078 0.821078
vt 0.853177 0.821091
vt 0.853106 0.821136
vt 0.853143 0.821172
vt 0.853261 0.820944
vt 0.853382 0.820999
vt 0.853299 0.821032
vt 0.853381 0.821050
vt 0.853331 0.821096
vt 0.853277 0.820774
vt 0.853224 0.820851
vt 0.853200 0.820759
vt 0.853309 0.820819
vt 0.853118 0.821009
vt 0.853211 0.821160
vt 0.853080 0.820799
vt 0.853102 0.820901
vt 0.853127 0.820706
vt 0.853072 0.820733
vt 0.853142 0.821177
vt 0.853228 0.821169
vt 0.853065 0.821062
vt 0.853100 0.821006
vt 0.853100 0.821140
vt 0.853385 0.821053
vt 0.853327 0.821116
vt 0.853368 0.820903
vt 0.853391 0.820998
vt 0.853071 0.820800
vt 0.853086 0.820918
vt 0.853268 0.820749
vt 0.853207 0.820743
vt 0.853315 0.820815
vt 0.853064 0.820711
vt 0.853133 0.820686
vt 0.853358 0.820907
vn 0.1519 0.9030 0.4019
vn -0.0652 0.9117 0.4057
vn -0.1445 0.9148 -0.3772
vn -0.4924 0.8379 -0.2357
vn 0.2920 0.8350 -0.4663
vn 0.2305 0.8835 -0.4079
vn 0.1065 0.9602 0.2581
vn -0.3537 0.9350 -0.0238
vn 0.1582 0.9779 0.1368
vn 0.2232 0.9748 0.0000
vn -0.9512 0.1924 0.2411
vn 0.9322 0.1652 0.3221
vn 0.1492 0.0000 0.9888
vn -0.0375 0.0000 0.9993
vn -0.9355 0.2029 -0.2894
vn -0.0952 0.0000 -0.9955
vn -0.2824 0.0000 -0.9593
vn 0.2726 0.2223 0.9361
vn 0.2685 0.0000 0.9633
vn 0.8664 0.2855 -0.4097
vn 0.3013 0.0000 -0.9535
vn 0.4938 0.2980 -0.8169
vn -0.9599 0.2773 -0.0414
vn 0.9149 0.3919 -0.0967
vn 0.2416 0.1797 0.9536
vn 0.1951 0.0000 -0.9808
vn 0.0942 0.9614 0.2585
vn 0.0780 0.8873 0.4545
vn -0.3473 0.9181 0.1909
vn -0.1253 0.9105 -0.3941
vn -0.3560 0.8639 -0.3562
vn 0.4050 0.8301 -0.3833
vn 0.2542 0.8876 -0.3842
vn -0.1555 0.9844 0.0820
vn -0.5054 0.8599 0.0716
vn 0.3720 0.9257 -0.0682
vn 0.1593 0.9857 -0.0542
vn -0.9902 0.0000 0.1397
vn 0.7332 0.4223 0.5330
vn 0.1401 0.0193 0.9900
vn -0.9841 0.0000 -0.1777
vn 0.1367 0.0000 0.9906
vn 0.2638 0.0095 0.9645
vn 0.5734 0.5955 -0.5627
vn 0.2038 0.2102 -0.9562
vn 0.3997 0.4472 -0.8002
vn -0.9579 0.2836 -0.0439
vn 0.8581 0.5134 0.0000
vn 0.2716 0.2225 0.9363
vn 0.2501 0.9589 0.1341
usemtl texturajuanjo
s off
f 10/1/1 9/2/1 8/3/1
f 9/2/2 6/4/2 8/3/2
f 20/5/3 19/6/3 18/7/3
f 18/7/4 17/8/4 16/9/4
f 35/10/5 32/11/5 34/12/5
f 33/13/6 20/5/6 32/11/6
f 20/5/7 9/2/7 11/14/7
f 9/2/8 16/9/8 7/15/8
f 26/16/9 32/11/9 25/17/9
f 36/18/10 26/16/10 27/19/10
f 1/20/11 7/15/11 2/21/11
f 11/14/12 4/22/12 5/23/12
f 3/24/13 10/1/13 8/3/13
f 3/24/14 6/4/14 1/20/14
f 16/9/15 13/25/15 12/26/15
f 19/6/16 15/27/16 14/28/16
f 17/8/17 14/28/17 13/25/17
f 23/29/18 25/17/18 22/30/18
f 23/29/19 27/19/19 26/16/19
f 30/31/20 34/12/20 29/32/20
f 35/10/21 28/33/21 33/13/21
f 36/18/22 29/32/22 34/12/22
f 7/15/23 12/26/23 2/21/23
f 36/18/24 24/34/24 31/35/24
f 22/30/25 11/14/25 5/23/25
f 33/13/26 15/27/26 21/36/26
f 25/17/27 20/5/27 11/14/27
f 10/1/28 11/14/28 9/2/28
f 9/2/29 7/15/29 6/4/29
f 20/5/30 21/36/30 19/6/30
f 18/7/31 19/6/31 17/8/31
f 35/10/32 33/13/32 32/11/32
f 33/13/33 21/36/33 20/5/33
f 20/5/34 18/7/34 9/2/34
f 9/2/35 18/7/35 16/9/35
f 26/16/36 34/12/36 32/11/36
f 36/18/37 34/12/37 26/16/37
f 1/20/38 6/4/38 7/15/38
f 11/14/39 10/1/39 4/22/39
f 3/24/40 4/22/40 10/1/40
f 3/24/14 8/3/14 6/4/14
f 16/9/41 17/8/41 13/25/41
f 19/6/16 21/36/16 15/27/16
f 17/8/17 19/6/17 14/28/17
f 23/29/42 26/16/42 25/17/42
f 23/29/43 24/34/43 27/19/43
f 30/31/44 35/10/44 34/12/44
f 35/10/45 30/31/45 28/33/45
f 36/18/46 31/35/46 29/32/46
f 7/15/47 16/9/47 12/26/47
f 36/18/48 27/19/48 24/34/48
f 22/30/49 25/17/49 11/14/49
f 33/13/26 28/33/26 15/27/26
f 25/17/50 32/11/50 20/5/50
