# Blender v2.90.0 Alpha OBJ File: 'Faro Rocas Arboles lol.blend'
# www.blender.org
mtllib SmallRock_1.mtl
o Sphere.007_Sphere.009
v 3.779453 0.000697 -2.724291
v 3.804921 0.000697 -2.795681
v 3.770847 0.050959 -2.731773
v 3.774906 0.096866 -2.786362
v 3.691129 0.000697 -2.698237
v 3.582848 0.000697 -2.744648
v 3.686870 0.060521 -2.728058
v 3.620924 0.097820 -2.752475
v 3.772936 0.000697 -2.890235
v 3.717582 0.000697 -2.937345
v 3.738163 0.101463 -2.881318
v 3.721146 0.072796 -2.915828
v 3.566163 0.000697 -2.816402
v 3.628978 0.000697 -2.912705
v 3.614388 0.079699 -2.828665
v 3.628576 0.058828 -2.917916
vt 0.854298 0.818819
vt 0.854257 0.818792
vt 0.854294 0.818780
vt 0.854289 0.818918
vt 0.854235 0.818881
vt 0.854293 0.818890
vt 0.854337 0.818809
vt 0.854304 0.818761
vt 0.854197 0.818817
vt 0.854255 0.818755
vt 0.854338 0.818902
vt 0.854243 0.818950
vt 0.854197 0.818887
vt 0.854257 0.818932
vt 0.854296 0.818957
vt 0.854238 0.818826
vn 0.1146 0.7561 0.6444
vn -0.3492 0.7982 -0.4909
vn 0.9215 0.2067 0.3287
vn -0.3619 0.3951 0.8443
vn 0.7285 0.3056 -0.6131
vn -0.7704 0.3923 -0.5025
vn 0.2779 0.1878 0.9421
vn -0.2669 -0.0879 -0.9597
vn 0.9004 0.3106 -0.3046
vn -0.9312 0.3645 -0.0068
vn -0.1315 0.9864 0.0986
vn 0.1540 0.7172 0.6796
vn -0.1392 0.9591 -0.2464
vn 0.9219 0.2599 0.2871
vn -0.2528 0.1758 0.9514
vn 0.6361 0.1916 -0.7474
vn -0.9881 -0.0205 -0.1523
vn 0.0905 0.4494 0.8887
vn -0.0217 0.2869 -0.9577
vn 0.8844 0.3340 -0.3260
vn -0.8242 0.5329 0.1917
vn -0.0441 0.9728 -0.2276
usemtl texturajuanjo
s off
f 4/1/1 7/2/1 3/3/1
f 12/4/2 15/5/2 11/6/2
f 2/7/3 3/3/3 1/8/3
f 7/2/4 6/9/4 5/10/4
f 9/11/5 12/4/5 11/6/5
f 15/5/6 14/12/6 13/13/6
f 3/3/7 5/10/7 1/8/7
f 16/14/8 10/15/8 14/12/8
f 9/11/9 4/1/9 2/7/9
f 15/5/10 6/9/10 8/16/10
f 15/5/11 4/1/11 11/6/11
f 4/1/12 8/16/12 7/2/12
f 12/4/13 16/14/13 15/5/13
f 2/7/14 4/1/14 3/3/14
f 7/2/15 8/16/15 6/9/15
f 9/11/16 10/15/16 12/4/16
f 15/5/17 16/14/17 14/12/17
f 3/3/18 7/2/18 5/10/18
f 16/14/19 12/4/19 10/15/19
f 9/11/20 11/6/20 4/1/20
f 15/5/21 13/13/21 6/9/21
f 15/5/22 8/16/22 4/1/22
