# Blender v2.90.0 Alpha OBJ File: 'Faro Rocas Arboles lol.blend'
# www.blender.org
mtllib SmallRock_2.mtl
o Sphere.006_Sphere.008
v 4.299859 0.000697 -2.931827
v 4.225019 0.000697 -2.919815
v 4.297439 0.050959 -2.920683
v 4.247627 0.096866 -2.897983
v 4.365186 0.000697 -2.866926
v 4.376584 0.000697 -2.749670
v 4.341091 0.060521 -2.848847
v 4.351407 0.097820 -2.779287
v 4.157509 0.000697 -2.846290
v 4.142835 0.000697 -2.775100
v 4.182054 0.101463 -2.820093
v 4.159984 0.072796 -2.788574
v 4.321702 0.000697 -2.700527
v 4.207057 0.000697 -2.709272
v 4.287754 0.079699 -2.736907
v 4.202683 0.058828 -2.706413
vt 0.855923 0.819140
vt 0.855951 0.819099
vt 0.855963 0.819136
vt 0.855824 0.819132
vt 0.855862 0.819078
vt 0.855853 0.819135
vt 0.855933 0.819179
vt 0.855982 0.819146
vt 0.855926 0.819039
vt 0.855988 0.819097
vt 0.855841 0.819180
vt 0.855793 0.819085
vt 0.855856 0.819039
vt 0.855811 0.819099
vt 0.855786 0.819138
vt 0.855916 0.819080
vn 0.5098 0.7561 -0.4104
vn -0.2624 0.7982 0.5422
vn -0.1551 0.2067 -0.9660
vn 0.9143 0.3951 -0.0889
vn -0.8879 0.3056 -0.3437
vn -0.0700 0.3923 0.9172
vn 0.6922 0.1878 -0.6968
vn -0.7130 -0.0879 0.6956
vn -0.7002 0.3105 -0.6429
vn 0.4419 0.3645 0.8196
vn 0.1497 0.9864 0.0678
vn 0.5217 0.7172 -0.4619
vn -0.1491 0.9591 0.2405
vn -0.1918 0.2599 -0.9464
vn 0.9557 0.1758 -0.2360
vn -0.9613 0.1916 -0.1981
vn 0.3418 -0.0205 0.9395
vn 0.7356 0.4494 -0.5068
vn -0.8292 0.2869 0.4797
vn -0.7112 0.3340 -0.6185
vn 0.5645 0.5329 0.6304
vn -0.1783 0.9728 0.1481
usemtl texturajuanjo
s off
f 4/1/1 7/2/1 3/3/1
f 12/4/2 15/5/2 11/6/2
f 2/7/3 3/3/3 1/8/3
f 7/2/4 6/9/4 5/10/4
f 9/11/5 12/4/5 11/6/5
f 15/5/6 14/12/6 13/13/6
f 3/3/7 5/10/7 1/8/7
f 16/14/8 10/15/8 14/12/8
f 9/11/9 4/1/9 2/7/9
f 15/5/10 6/9/10 8/16/10
f 15/5/11 4/1/11 11/6/11
f 4/1/12 8/16/12 7/2/12
f 12/4/13 16/14/13 15/5/13
f 2/7/14 4/1/14 3/3/14
f 7/2/15 8/16/15 6/9/15
f 9/11/16 10/15/16 12/4/16
f 15/5/17 16/14/17 14/12/17
f 3/3/18 7/2/18 5/10/18
f 16/14/19 12/4/19 10/15/19
f 9/11/20 11/6/20 4/1/20
f 15/5/21 13/13/21 6/9/21
f 15/5/22 8/16/22 4/1/22
