# Blender v2.90.0 Alpha OBJ File: 'Faro Rocas Arboles lol.blend'
# www.blender.org
mtllib SmallRock_3.mtl
o Sphere.005_Sphere.007
v 4.066494 -0.000198 -2.326340
v 3.952964 -0.000198 -2.335518
v 4.066787 0.059346 -2.310164
v 3.996642 0.113731 -2.293753
v 4.193372 -0.000198 -2.202875
v 4.254540 -0.000198 -2.019100
v 4.162056 0.070674 -2.184065
v 4.203945 0.114861 -2.073733
v 3.873650 -0.000198 -2.247791
v 3.876753 -0.000198 -2.144171
v 3.921988 0.119176 -2.198627
v 3.898818 0.085216 -2.158488
v 4.186148 -0.000198 -1.964058
v 4.002231 -0.000198 -2.019693
v 4.119236 0.093393 -2.032283
v 3.996390 0.068668 -2.016927
vt 0.854487 0.818819
vt 0.854446 0.818792
vt 0.854483 0.818780
vt 0.854478 0.818918
vt 0.854424 0.818881
vt 0.854482 0.818890
vt 0.854526 0.818809
vt 0.854493 0.818761
vt 0.854386 0.818817
vt 0.854444 0.818755
vt 0.854527 0.818902
vt 0.854432 0.818950
vt 0.854386 0.818887
vt 0.854446 0.818932
vt 0.854485 0.818957
vt 0.854427 0.818826
vn 0.4859 0.7580 -0.4352
vn -0.3161 0.8064 0.4998
vn 0.0778 0.2610 -0.9622
vn 0.8476 0.4494 -0.2821
vn -0.8918 0.4250 -0.1552
vn -0.2599 0.4405 0.8593
vn 0.6850 0.1879 -0.7039
vn -0.7015 -0.0879 0.7072
vn -0.6554 0.4685 -0.5925
vn 0.2715 0.5076 0.8177
vn 0.1070 0.9939 0.0271
vn 0.5047 0.7181 -0.4792
vn -0.1650 0.9601 0.2259
vn 0.0365 0.3316 -0.9427
vn 0.8889 0.1938 -0.4151
vn -0.9666 0.2546 0.0289
vn 0.1297 -0.0288 0.9911
vn 0.6906 0.4545 -0.5626
vn -0.7706 0.2939 0.5655
vn -0.6680 0.4982 -0.5528
vn 0.4398 0.7127 0.5464
vn -0.1704 0.9730 0.1556
usemtl texturajuanjo
s off
f 4/1/1 7/2/1 3/3/1
f 12/4/2 15/5/2 11/6/2
f 2/7/3 3/3/3 1/8/3
f 7/2/4 6/9/4 5/10/4
f 9/11/5 12/4/5 11/6/5
f 15/5/6 14/12/6 13/13/6
f 3/3/7 5/10/7 1/8/7
f 16/14/8 10/15/8 14/12/8
f 9/11/9 4/1/9 2/7/9
f 15/5/10 6/9/10 8/16/10
f 15/5/11 4/1/11 11/6/11
f 4/1/12 8/16/12 7/2/12
f 12/4/13 16/14/13 15/5/13
f 2/7/14 4/1/14 3/3/14
f 7/2/15 8/16/15 6/9/15
f 9/11/16 10/15/16 12/4/16
f 15/5/17 16/14/17 14/12/17
f 3/3/18 7/2/18 5/10/18
f 16/14/19 12/4/19 10/15/19
f 9/11/20 11/6/20 4/1/20
f 15/5/21 13/13/21 6/9/21
f 15/5/22 8/16/22 4/1/22
