# Blender v2.90.0 Alpha OBJ File: 'Faro Rocas Arboles lol.blend'
# www.blender.org
mtllib Tree1.mtl
o Cylinder.001
v 6.139468 -0.016863 -0.292317
v 6.139468 3.407404 -0.292317
v 6.368011 -0.016863 -0.182257
v 6.368011 3.407404 -0.182257
v 6.424456 -0.016863 0.065047
v 6.424456 3.407404 0.065047
v 6.266299 -0.016863 0.263368
v 6.266299 3.407404 0.263368
v 6.012636 -0.016863 0.263368
v 6.012636 3.407404 0.263368
v 5.854480 -0.016863 0.065047
v 5.854480 3.407404 0.065047
v 5.910925 -0.016863 -0.182257
v 5.910925 3.407404 -0.182257
v 6.864864 3.631933 -0.754798
v 6.864864 3.017425 -1.369305
v 6.864864 2.177992 -1.594231
v 7.206292 3.631933 -0.682225
v 7.456235 3.017425 -1.243606
v 7.547720 2.177992 -1.449085
v 7.488684 3.631933 -0.477055
v 7.945353 3.017425 -0.888241
v 8.112505 2.177992 -1.038745
v 7.663212 3.631933 -0.174764
v 8.247643 3.017425 -0.364657
v 8.461560 2.177992 -0.434163
v 7.699698 3.631933 0.172380
v 8.310840 3.017425 0.236613
v 8.534533 2.177992 0.260124
v 7.591834 3.631933 0.504351
v 8.124014 3.017425 0.811605
v 8.318805 2.177992 0.924068
v 7.358270 3.631933 0.763751
v 7.719469 3.017425 1.260898
v 7.851676 2.177992 1.442866
v 7.039392 3.631933 0.905724
v 7.167155 3.017425 1.506803
v 7.213920 2.177992 1.726813
v 6.690336 3.631933 0.905724
v 6.562573 3.017425 1.506803
v 6.515808 2.177992 1.726813
v 6.371458 3.631933 0.763750
v 6.010259 3.017425 1.260897
v 5.878051 2.177992 1.442865
v 6.137894 3.631933 0.504351
v 5.605715 3.017425 0.811605
v 5.410924 2.177992 0.924068
v 6.030030 3.631933 0.172380
v 5.418889 3.017425 0.236613
v 5.195196 2.177992 0.260124
v 6.066516 3.631933 -0.174764
v 5.482085 3.017425 -0.364657
v 5.268168 2.177992 -0.434163
v 6.241045 3.631933 -0.477055
v 5.784376 3.017425 -0.888241
v 5.617224 2.177992 -1.038745
v 6.523437 3.631933 -0.682225
v 6.273494 3.017425 -1.243605
v 6.182008 2.177992 -1.449085
v 6.864864 3.856858 0.084635
v 5.159104 2.970567 -0.644522
v 5.159104 2.545352 -1.069738
v 5.159104 1.964496 -1.225378
v 5.395359 2.970567 -0.594304
v 5.568310 2.545352 -0.982759
v 5.631615 1.964496 -1.124943
v 5.590764 2.970567 -0.452335
v 5.906761 2.545352 -0.736860
v 6.022424 1.964496 -0.841003
v 5.711531 2.970567 -0.243161
v 6.115935 2.545352 -0.374560
v 6.263957 1.964496 -0.422655
v 5.736777 2.970567 -0.002951
v 6.159664 2.545352 0.041497
v 6.314451 1.964496 0.057765
v 5.662139 2.970567 0.226761
v 6.030387 2.545352 0.439369
v 6.165175 1.964496 0.517189
v 5.500522 2.970567 0.406256
v 5.750458 2.545352 0.750262
v 5.841940 1.964496 0.876178
v 5.279871 2.970567 0.504496
v 5.368278 2.545352 0.920420
v 5.400637 1.964496 1.072659
v 5.038337 2.970567 0.504496
v 4.949930 2.545352 0.920420
v 4.917571 1.964496 1.072659
v 4.817686 2.970567 0.406255
v 4.567750 2.545352 0.750262
v 4.476267 1.964496 0.876178
v 4.656068 2.970567 0.226761
v 4.287821 2.545352 0.439369
v 4.153032 1.964496 0.517189
v 4.581430 2.970567 -0.002951
v 4.158544 2.545352 0.041496
v 4.003757 1.964496 0.057765
v 4.606678 2.970567 -0.243161
v 4.202273 2.545352 -0.374560
v 4.054252 1.964496 -0.422655
v 4.727445 2.970567 -0.452335
v 4.411448 2.545352 -0.736860
v 4.295785 1.964496 -0.841003
v 4.922849 2.970567 -0.594304
v 4.749898 2.545352 -0.982758
v 4.686594 1.964496 -1.124942
v 5.159104 3.126207 -0.063666
v 5.830491 3.996201 -1.677248
v 5.830491 3.501469 -2.171979
v 5.830491 2.825654 -2.353063
v 6.105370 3.996201 -1.618820
v 6.306595 3.501469 -2.070780
v 6.380249 2.825654 -2.236208
v 6.332719 3.996201 -1.453641
v 6.700377 3.501469 -1.784681
v 6.834948 2.825654 -1.905850
v 6.473229 3.996201 -1.210271
v 6.943747 3.501469 -1.363151
v 7.115968 2.825654 -1.419109
v 6.502604 3.996201 -0.930790
v 6.994625 3.501469 -0.879077
v 7.174717 2.825654 -0.860148
v 6.415764 3.996201 -0.663525
v 6.844213 3.501469 -0.416159
v 7.001037 2.825654 -0.325617
v 6.227725 3.996201 -0.454686
v 6.518520 3.501469 -0.054440
v 6.624959 2.825654 0.092060
v 5.971000 3.996201 -0.340385
v 6.073861 3.501469 0.143535
v 6.111510 2.825654 0.320662
v 5.689981 3.996201 -0.340385
v 5.587120 3.501469 0.143535
v 5.549470 2.825654 0.320662
v 5.433256 3.996201 -0.454686
v 5.142460 3.501469 -0.054440
v 5.036022 2.825654 0.092060
v 5.245217 3.996201 -0.663525
v 4.816768 3.501469 -0.416159
v 4.659944 2.825654 -0.325617
v 5.158378 3.996201 -0.930790
v 4.666357 3.501469 -0.879077
v 4.486264 2.825654 -0.860149
v 5.187752 3.996201 -1.210271
v 4.717235 3.501469 -1.363151
v 4.545013 2.825654 -1.419109
v 5.328262 3.996201 -1.453641
v 4.960605 3.501469 -1.784681
v 4.826034 2.825654 -1.905850
v 5.555612 3.996201 -1.618820
v 5.354386 3.501469 -2.070780
v 5.280733 2.825654 -2.236208
v 5.830491 4.177285 -1.001432
vt 0.520344 0.478385
vt 0.520346 0.478386
vt 0.520345 0.478388
vt 0.520344 0.478385
vt 0.520346 0.478384
vt 0.520344 0.478385
vt 0.520345 0.478383
vt 0.520344 0.478385
vt 0.520342 0.478383
vt 0.520344 0.478385
vt 0.520342 0.478385
vt 0.520344 0.478385
vt 0.520343 0.478387
vt 0.520344 0.478385
vt 0.165076 0.497869
vt 0.165141 0.497848
vt 0.165091 0.497894
vt 0.165053 0.497927
vt 0.165029 0.497885
vt 0.165037 0.497942
vt 0.165007 0.497892
vt 0.165093 0.497956
vt 0.165084 0.497977
vt 0.165114 0.497910
vt 0.165141 0.497916
vt 0.165141 0.497967
vt 0.165141 0.497989
vt 0.165189 0.497956
vt 0.165198 0.497977
vt 0.165169 0.497910
vt 0.165245 0.497942
vt 0.165192 0.497893
vt 0.165229 0.497927
vt 0.165275 0.497892
vt 0.165206 0.497869
vt 0.165254 0.497885
vt 0.165281 0.497834
vt 0.165209 0.497841
vt 0.165259 0.497836
vt 0.165243 0.497789
vt 0.165263 0.497778
vt 0.165200 0.497814
vt 0.165224 0.497735
vt 0.165181 0.497793
vt 0.165210 0.497752
vt 0.165155 0.497782
vt 0.165166 0.497732
vt 0.165170 0.497711
vt 0.165116 0.497733
vt 0.165112 0.497711
vt 0.165127 0.497782
vt 0.165071 0.497753
vt 0.165058 0.497735
vt 0.165101 0.497793
vt 0.165039 0.497789
vt 0.165019 0.497778
vt 0.165082 0.497814
vt 0.165023 0.497836
vt 0.165001 0.497833
vt 0.165074 0.497841
vt 0.165131 0.498707
vt 0.165150 0.498664
vt 0.165150 0.498711
vt 0.165117 0.498739
vt 0.165150 0.498746
vt 0.165110 0.498753
vt 0.165150 0.498761
vt 0.165183 0.498739
vt 0.165190 0.498753
vt 0.165169 0.498707
vt 0.165211 0.498719
vt 0.165222 0.498729
vt 0.165185 0.498695
vt 0.165228 0.498689
vt 0.165242 0.498694
vt 0.165195 0.498678
vt 0.165247 0.498654
vt 0.165197 0.498659
vt 0.165231 0.498655
vt 0.165234 0.498615
vt 0.165191 0.498640
vt 0.165221 0.498623
vt 0.165207 0.498585
vt 0.165178 0.498626
vt 0.165198 0.498598
vt 0.165170 0.498569
vt 0.165160 0.498618
vt 0.165167 0.498584
vt 0.165130 0.498569
vt 0.165140 0.498618
vt 0.165133 0.498584
vt 0.165122 0.498626
vt 0.165102 0.498598
vt 0.165093 0.498585
vt 0.165079 0.498623
vt 0.165066 0.498615
vt 0.165109 0.498640
vt 0.165069 0.498655
vt 0.165053 0.498654
vt 0.165103 0.498659
vt 0.165105 0.498679
vt 0.165072 0.498689
vt 0.165058 0.498694
vt 0.165089 0.498719
vt 0.165078 0.498729
vt 0.165115 0.498695
vt 0.165082 0.498891
vt 0.165134 0.498908
vt 0.165080 0.498914
vt 0.165039 0.498918
vt 0.165043 0.498879
vt 0.165022 0.498920
vt 0.165026 0.498873
vt 0.165052 0.498956
vt 0.165036 0.498965
vt 0.165087 0.498936
vt 0.165078 0.498985
vt 0.165068 0.499000
vt 0.165102 0.498952
vt 0.165115 0.499001
vt 0.165111 0.499019
vt 0.165123 0.498962
vt 0.165158 0.499019
vt 0.165146 0.498962
vt 0.165154 0.499001
vt 0.165201 0.499000
vt 0.165166 0.498952
vt 0.165190 0.498985
vt 0.165217 0.498956
vt 0.165232 0.498965
vt 0.165182 0.498935
vt 0.165229 0.498918
vt 0.165247 0.498920
vt 0.165189 0.498914
vt 0.165225 0.498879
vt 0.165242 0.498873
vt 0.165186 0.498891
vt 0.165175 0.498871
vt 0.165205 0.498844
vt 0.165218 0.498832
vt 0.165173 0.498821
vt 0.165180 0.498805
vt 0.165156 0.498858
vt 0.165134 0.498813
vt 0.165134 0.498795
vt 0.165134 0.498853
vt 0.165112 0.498858
vt 0.165095 0.498821
vt 0.165088 0.498805
vt 0.165063 0.498845
vt 0.165050 0.498833
vt 0.165093 0.498872
vn 0.4339 0.0000 -0.9010
vn 0.9749 0.0000 -0.2225
vn 0.7818 0.0000 0.6235
vn 0.0000 0.0000 1.0000
vn -0.7818 0.0000 0.6235
vn -0.9749 0.0000 -0.2225
vn -0.4339 0.0000 -0.9010
vn 0.0549 0.9645 -0.2584
vn 0.1486 0.6993 -0.6993
vn 0.2011 0.2535 -0.9462
vn 0.4202 0.6993 -0.5783
vn 0.5686 0.2535 -0.7826
vn 0.1553 0.9645 -0.2137
vn 0.6191 0.6993 -0.3574
vn 0.8377 0.2535 -0.4837
vn 0.2288 0.9645 -0.1321
vn 0.7110 0.6993 -0.0747
vn 0.9620 0.2535 -0.1011
vn 0.2628 0.9645 -0.0276
vn 0.9200 0.2535 0.2989
vn 0.2513 0.9645 0.0816
vn 0.6799 0.6993 0.2209
vn 0.7189 0.2535 0.6473
vn 0.1963 0.9645 0.1768
vn 0.5313 0.6993 0.4783
vn 0.3934 0.2535 0.8837
vn 0.1075 0.9645 0.2414
vn 0.2908 0.6993 0.6531
vn 0.0000 0.2535 0.9673
vn 0.0000 0.9645 0.2642
vn 0.0000 0.6993 0.7149
vn -0.3934 0.2535 0.8837
vn -0.1075 0.9645 0.2414
vn -0.2908 0.6993 0.6531
vn -0.1963 0.9645 0.1768
vn -0.5313 0.6993 0.4783
vn -0.7189 0.2535 0.6473
vn -0.6799 0.6993 0.2209
vn -0.9200 0.2535 0.2989
vn -0.2513 0.9645 0.0816
vn -0.7110 0.6993 -0.0747
vn -0.9620 0.2535 -0.1011
vn -0.2628 0.9645 -0.0276
vn -0.6191 0.6993 -0.3574
vn -0.8377 0.2535 -0.4837
vn -0.2288 0.9645 -0.1321
vn -0.4202 0.6993 -0.5783
vn -0.5686 0.2535 -0.7826
vn -0.1553 0.9645 -0.2137
vn -0.1486 0.6993 -0.6993
vn -0.2011 0.2535 -0.9462
vn -0.0549 0.9645 -0.2584
usemtl texturajuanjo
s off
f 2/1/1 3/2/1 1/3/1
f 4/4/2 5/5/2 3/2/2
f 6/6/3 7/7/3 5/5/3
f 8/8/4 9/9/4 7/7/4
f 10/10/5 11/11/5 9/9/5
f 12/12/6 13/13/6 11/11/6
f 14/14/7 1/3/7 13/13/7
f 15/15/8 60/16/8 18/17/8
f 15/15/9 19/18/9 16/19/9
f 16/19/10 20/20/10 17/21/10
f 18/17/11 22/22/11 19/18/11
f 20/20/12 22/22/12 23/23/12
f 18/17/13 60/16/13 21/24/13
f 22/22/14 24/25/14 25/26/14
f 22/22/15 26/27/15 23/23/15
f 21/24/16 60/16/16 24/25/16
f 24/25/17 28/28/17 25/26/17
f 25/26/18 29/29/18 26/27/18
f 24/25/19 60/16/19 27/30/19
f 28/28/20 32/31/20 29/29/20
f 27/30/21 60/16/21 30/32/21
f 28/28/22 30/32/22 31/33/22
f 31/33/23 35/34/23 32/31/23
f 30/32/24 60/16/24 33/35/24
f 30/32/25 34/36/25 31/33/25
f 34/36/26 38/37/26 35/34/26
f 33/35/27 60/16/27 36/38/27
f 33/35/28 37/39/28 34/36/28
f 38/37/29 40/40/29 41/41/29
f 36/38/30 60/16/30 39/42/30
f 37/39/31 39/42/31 40/40/31
f 40/40/32 44/43/32 41/41/32
f 39/42/33 60/16/33 42/44/33
f 40/40/34 42/44/34 43/45/34
f 42/44/35 60/16/35 45/46/35
f 43/45/36 45/46/36 46/47/36
f 44/43/37 46/47/37 47/48/37
f 45/46/38 49/49/38 46/47/38
f 46/47/39 50/50/39 47/48/39
f 45/46/40 60/16/40 48/51/40
f 48/51/41 52/52/41 49/49/41
f 50/50/42 52/52/42 53/53/42
f 48/51/43 60/16/43 51/54/43
f 51/54/44 55/55/44 52/52/44
f 53/53/45 55/55/45 56/56/45
f 51/54/46 60/16/46 54/57/46
f 54/57/47 58/58/47 55/55/47
f 56/56/48 58/58/48 59/59/48
f 54/57/49 60/16/49 57/60/49
f 58/58/50 15/15/50 16/19/50
f 59/59/51 16/19/51 17/21/51
f 57/60/52 60/16/52 15/15/52
f 61/61/8 106/62/8 64/63/8
f 62/64/9 64/63/9 65/65/9
f 63/66/10 65/65/10 66/67/10
f 64/63/11 68/68/11 65/65/11
f 65/65/12 69/69/12 66/67/12
f 64/63/13 106/62/13 67/70/13
f 67/70/14 71/71/14 68/68/14
f 68/68/15 72/72/15 69/69/15
f 67/70/16 106/62/16 70/73/16
f 70/73/17 74/74/17 71/71/17
f 71/71/18 75/75/18 72/72/18
f 70/73/19 106/62/19 73/76/19
f 74/74/20 78/77/20 75/75/20
f 73/76/21 106/62/21 76/78/21
f 74/74/22 76/78/22 77/79/22
f 77/79/23 81/80/23 78/77/23
f 76/78/24 106/62/24 79/81/24
f 76/78/25 80/82/25 77/79/25
f 80/82/26 84/83/26 81/80/26
f 79/81/27 106/62/27 82/84/27
f 80/82/28 82/84/28 83/85/28
f 83/85/29 87/86/29 84/83/29
f 82/84/30 106/62/30 85/87/30
f 83/85/31 85/87/31 86/88/31
f 86/88/32 90/89/32 87/86/32
f 85/87/33 106/62/33 88/90/33
f 85/87/34 89/91/34 86/88/34
f 88/90/35 106/62/35 91/92/35
f 88/90/36 92/93/36 89/91/36
f 90/89/37 92/93/37 93/94/37
f 91/92/38 95/95/38 92/93/38
f 93/94/39 95/95/39 96/96/39
f 91/92/40 106/62/40 94/97/40
f 94/97/41 98/98/41 95/95/41
f 96/96/42 98/98/42 99/99/42
f 94/97/43 106/62/43 97/100/43
f 98/98/44 100/101/44 101/102/44
f 99/99/45 101/102/45 102/103/45
f 97/100/46 106/62/46 100/101/46
f 100/101/47 104/104/47 101/102/47
f 102/103/48 104/104/48 105/105/48
f 100/101/49 106/62/49 103/106/49
f 104/104/50 61/61/50 62/64/50
f 105/105/51 62/64/51 63/66/51
f 103/106/52 106/62/52 61/61/52
f 107/107/8 152/108/8 110/109/8
f 107/107/9 111/110/9 108/111/9
f 108/111/10 112/112/10 109/113/10
f 110/109/11 114/114/11 111/110/11
f 112/112/12 114/114/12 115/115/12
f 110/109/13 152/108/13 113/116/13
f 113/116/14 117/117/14 114/114/14
f 115/115/15 117/117/15 118/118/15
f 113/116/16 152/108/16 116/119/16
f 116/119/17 120/120/17 117/117/17
f 117/117/18 121/121/18 118/118/18
f 116/119/19 152/108/19 119/122/19
f 120/120/20 124/123/20 121/121/20
f 119/122/21 152/108/21 122/124/21
f 119/122/22 123/125/22 120/120/22
f 123/125/23 127/126/23 124/123/23
f 122/124/24 152/108/24 125/127/24
f 123/125/25 125/127/25 126/128/25
f 127/126/26 129/129/26 130/130/26
f 125/127/27 152/108/27 128/131/27
f 125/127/28 129/129/28 126/128/28
f 130/130/29 132/132/29 133/133/29
f 128/131/30 152/108/30 131/134/30
f 129/129/31 131/134/31 132/132/31
f 133/133/32 135/135/32 136/136/32
f 131/134/33 152/108/33 134/137/33
f 132/132/34 134/137/34 135/135/34
f 134/137/35 152/108/35 137/138/35
f 134/137/36 138/139/36 135/135/36
f 136/136/37 138/139/37 139/140/37
f 137/138/38 141/141/38 138/139/38
f 138/139/39 142/142/39 139/140/39
f 137/138/40 152/108/40 140/143/40
f 140/143/41 144/144/41 141/141/41
f 142/142/42 144/144/42 145/145/42
f 140/143/43 152/108/43 143/146/43
f 144/144/44 146/147/44 147/148/44
f 145/145/45 147/148/45 148/149/45
f 143/146/46 152/108/46 146/147/46
f 146/147/47 150/150/47 147/148/47
f 147/148/48 151/151/48 148/149/48
f 146/147/49 152/108/49 149/152/49
f 150/150/50 107/107/50 108/111/50
f 151/151/51 108/111/51 109/113/51
f 149/152/52 152/108/52 107/107/52
f 2/1/1 4/4/1 3/2/1
f 4/4/2 6/6/2 5/5/2
f 6/6/3 8/8/3 7/7/3
f 8/8/4 10/10/4 9/9/4
f 10/10/5 12/12/5 11/11/5
f 12/12/6 14/14/6 13/13/6
f 14/14/7 2/1/7 1/3/7
f 15/15/9 18/17/9 19/18/9
f 16/19/10 19/18/10 20/20/10
f 18/17/11 21/24/11 22/22/11
f 20/20/12 19/18/12 22/22/12
f 22/22/14 21/24/14 24/25/14
f 22/22/15 25/26/15 26/27/15
f 24/25/17 27/30/17 28/28/17
f 25/26/18 28/28/18 29/29/18
f 28/28/20 31/33/20 32/31/20
f 28/28/22 27/30/22 30/32/22
f 31/33/23 34/36/23 35/34/23
f 30/32/25 33/35/25 34/36/25
f 34/36/26 37/39/26 38/37/26
f 33/35/28 36/38/28 37/39/28
f 38/37/29 37/39/29 40/40/29
f 37/39/31 36/38/31 39/42/31
f 40/40/32 43/45/32 44/43/32
f 40/40/34 39/42/34 42/44/34
f 43/45/36 42/44/36 45/46/36
f 44/43/37 43/45/37 46/47/37
f 45/46/38 48/51/38 49/49/38
f 46/47/39 49/49/39 50/50/39
f 48/51/41 51/54/41 52/52/41
f 50/50/42 49/49/42 52/52/42
f 51/54/44 54/57/44 55/55/44
f 53/53/45 52/52/45 55/55/45
f 54/57/47 57/60/47 58/58/47
f 56/56/48 55/55/48 58/58/48
f 58/58/50 57/60/50 15/15/50
f 59/59/51 58/58/51 16/19/51
f 62/64/9 61/61/9 64/63/9
f 63/66/10 62/64/10 65/65/10
f 64/63/11 67/70/11 68/68/11
f 65/65/12 68/68/12 69/69/12
f 67/70/14 70/73/14 71/71/14
f 68/68/15 71/71/15 72/72/15
f 70/73/17 73/76/17 74/74/17
f 71/71/18 74/74/18 75/75/18
f 74/74/20 77/79/20 78/77/20
f 74/74/22 73/76/22 76/78/22
f 77/79/23 80/82/23 81/80/23
f 76/78/25 79/81/25 80/82/25
f 80/82/26 83/85/26 84/83/26
f 80/82/28 79/81/28 82/84/28
f 83/85/29 86/88/29 87/86/29
f 83/85/31 82/84/31 85/87/31
f 86/88/32 89/91/32 90/89/32
f 85/87/34 88/90/34 89/91/34
f 88/90/36 91/92/36 92/93/36
f 90/89/37 89/91/37 92/93/37
f 91/92/38 94/97/38 95/95/38
f 93/94/39 92/93/39 95/95/39
f 94/97/41 97/100/41 98/98/41
f 96/96/42 95/95/42 98/98/42
f 98/98/44 97/100/44 100/101/44
f 99/99/45 98/98/45 101/102/45
f 100/101/47 103/106/47 104/104/47
f 102/103/48 101/102/48 104/104/48
f 104/104/50 103/106/50 61/61/50
f 105/105/51 104/104/51 62/64/51
f 107/107/9 110/109/9 111/110/9
f 108/111/10 111/110/10 112/112/10
f 110/109/11 113/116/11 114/114/11
f 112/112/12 111/110/12 114/114/12
f 113/116/14 116/119/14 117/117/14
f 115/115/15 114/114/15 117/117/15
f 116/119/17 119/122/17 120/120/17
f 117/117/18 120/120/18 121/121/18
f 120/120/20 123/125/20 124/123/20
f 119/122/22 122/124/22 123/125/22
f 123/125/23 126/128/23 127/126/23
f 123/125/25 122/124/25 125/127/25
f 127/126/26 126/128/26 129/129/26
f 125/127/28 128/131/28 129/129/28
f 130/130/29 129/129/29 132/132/29
f 129/129/31 128/131/31 131/134/31
f 133/133/32 132/132/32 135/135/32
f 132/132/34 131/134/34 134/137/34
f 134/137/36 137/138/36 138/139/36
f 136/136/37 135/135/37 138/139/37
f 137/138/38 140/143/38 141/141/38
f 138/139/39 141/141/39 142/142/39
f 140/143/41 143/146/41 144/144/41
f 142/142/42 141/141/42 144/144/42
f 144/144/44 143/146/44 146/147/44
f 145/145/45 144/144/45 147/148/45
f 146/147/47 149/152/47 150/150/47
f 147/148/48 150/150/48 151/151/48
f 150/150/50 149/152/50 107/107/50
f 151/151/51 150/150/51 108/111/51
