# Blender v2.90.0 Alpha OBJ File: 'Faro Rocas Arboles lol.blend'
# www.blender.org
mtllib Tree2.mtl
o Cone
v -0.047138 2.503025 -1.288091
v 0.859022 2.134246 -1.227948
v 1.239068 2.347728 -0.482485
v 1.372151 2.277343 0.445839
v 0.842931 2.172302 1.220688
v -0.000000 2.277343 1.442765
v -0.743314 2.420317 1.121992
v -1.372151 2.277343 0.445839
v -1.344388 2.400154 -0.500588
v -0.848035 2.277343 -1.167222
v 0.000000 4.260241 0.000000
v 0.000000 0.002521 -0.292317
v 0.000000 3.334512 -0.292317
v 0.228543 0.002521 -0.182257
v 0.228543 3.334512 -0.182257
v 0.284988 0.002521 0.065047
v 0.284988 3.334512 0.065047
v 0.126832 0.002521 0.263368
v 0.126832 3.334512 0.263368
v -0.126832 0.002521 0.263368
v -0.126832 3.334512 0.263368
v -0.284988 0.002521 0.065047
v -0.284988 3.334512 0.065047
v -0.228543 0.002521 -0.182257
v -0.228543 3.334512 -0.182257
v 0.353387 3.199003 -1.092611
v 1.093573 2.870455 -0.765904
v 1.184348 3.060648 -0.025985
v 1.012627 2.997941 0.791685
v 0.333312 2.904359 1.278892
v -0.440018 2.997941 1.207710
v -0.964401 3.125318 0.712500
v -1.284573 2.997941 -0.045279
v -0.972690 3.107355 -0.829047
v -0.353891 2.997941 -1.235694
v 0.000000 4.764521 0.000000
v 0.803248 3.923280 -0.457021
v 1.065441 3.658870 0.138991
v 0.717530 3.811934 0.627748
v 0.171490 3.761469 1.020129
v -0.496561 3.686155 0.940582
v -0.917207 3.761469 0.478334
v -0.959721 3.863979 -0.100561
v -0.738355 3.761469 -0.724502
v -0.127480 3.849522 -1.020631
v 0.460878 3.761469 -0.926101
v 0.000000 5.183179 0.000000
v 1.297209 1.771275 -0.635801
v 1.648967 1.357952 0.319333
v 1.059136 1.597220 1.048444
v 0.169448 1.518333 1.608131
v -0.865215 1.400604 1.419766
v -1.477061 1.518333 0.658095
v -1.487715 1.678577 -0.249204
v -1.082322 1.518333 -1.201406
v -0.100734 1.655978 -1.604682
v 0.808150 1.518333 -1.400604
v 0.000000 3.740741 0.000000
v 0.583136 4.525195 0.195727
v 0.403778 4.349208 0.590255
v 0.006930 4.451085 0.634510
v -0.430015 4.417496 0.537709
v -0.686963 4.367369 0.170982
v -0.644273 4.417496 -0.242807
v -0.375936 4.485725 -0.520754
v 0.031832 4.417496 -0.687772
v 0.449791 4.476103 -0.516097
v 0.663947 4.417496 -0.182259
v 0.000000 5.363763 0.000000
vt 0.165212 0.498064
vt 0.165211 0.498032
vt 0.165237 0.498064
vt 0.165244 0.498043
vt 0.165246 0.498019
vt 0.165233 0.497998
vt 0.165210 0.497994
vt 0.165191 0.498004
vt 0.165175 0.498022
vt 0.165178 0.498046
vt 0.165191 0.498064
vt 0.520377 0.478410
vt 0.520378 0.478410
vt 0.520378 0.478409
vt 0.520377 0.478409
vt 0.520378 0.478410
vt 0.520377 0.478409
vt 0.520378 0.478410
vt 0.520378 0.478409
vt 0.520377 0.478410
vt 0.520378 0.478410
vt 0.520377 0.478409
vt 0.520378 0.478410
vt 0.520378 0.478409
vt 0.520377 0.478410
vt 0.165024 0.498773
vt 0.165052 0.498772
vt 0.165024 0.498795
vt 0.165043 0.498802
vt 0.165064 0.498804
vt 0.165083 0.498792
vt 0.165086 0.498771
vt 0.165077 0.498755
vt 0.165062 0.498740
vt 0.165040 0.498743
vt 0.165024 0.498754
vt 0.165246 0.498782
vt 0.165223 0.498783
vt 0.165246 0.498764
vt 0.165231 0.498759
vt 0.165214 0.498758
vt 0.165199 0.498768
vt 0.165196 0.498784
vt 0.165204 0.498797
vt 0.165216 0.498809
vt 0.165234 0.498806
vt 0.165246 0.498797
vt 0.165852 0.498098
vt 0.165854 0.498134
vt 0.165825 0.498098
vt 0.165816 0.498122
vt 0.165814 0.498149
vt 0.165829 0.498172
vt 0.165855 0.498176
vt 0.165876 0.498165
vt 0.165894 0.498145
vt 0.165890 0.498118
vt 0.165876 0.498098
vt 0.165134 0.498416
vt 0.165134 0.498432
vt 0.165122 0.498416
vt 0.165118 0.498427
vt 0.165117 0.498438
vt 0.165124 0.498448
vt 0.165135 0.498450
vt 0.165144 0.498445
vt 0.165151 0.498437
vt 0.165150 0.498425
vt 0.165144 0.498416
vn 0.2806 0.5626 -0.7777
vn 0.6649 0.5565 -0.4983
vn 0.8279 0.5557 -0.0766
vn 0.6451 0.5627 0.5169
vn 0.2753 0.5656 0.7774
vn -0.2295 0.5726 0.7870
vn -0.6594 0.5672 0.4933
vn -0.8159 0.5760 0.0508
vn -0.5980 0.5808 -0.5523
vn -0.2778 0.5728 -0.7712
vn 0.4339 0.0000 -0.9010
vn 0.9749 0.0000 -0.2225
vn 0.7818 0.0000 0.6235
vn 0.0000 0.0000 1.0000
vn -0.7818 0.0000 0.6235
vn -0.9749 0.0000 -0.2225
vn -0.4339 0.0000 -0.9010
vn 0.0000 -1.0000 0.0000
vn 0.5298 0.5626 -0.6347
vn 0.7953 0.5565 -0.2406
vn 0.8041 0.5557 0.2115
vn 0.4292 0.5627 0.7065
vn -0.0075 0.5656 0.8246
vn -0.4850 0.5726 0.6609
vn -0.7885 0.5672 0.2378
vn -0.7840 0.5760 -0.2316
vn -0.3728 0.5808 -0.7236
vn 0.0030 0.5728 -0.8197
vn 0.8193 0.5626 -0.1109
vn 0.7493 0.5565 0.3591
vn 0.4507 0.5557 0.6986
vn -0.1600 0.5627 0.8111
vn -0.5620 0.5656 0.6035
vn -0.8040 0.5726 0.1604
vn -0.7424 0.5672 -0.3566
vn -0.4223 0.5760 -0.6999
vn 0.2132 0.5808 -0.7856
vn 0.5554 0.5728 -0.6029
vn 0.8246 0.5626 -0.0602
vn 0.7258 0.5565 0.4045
vn 0.4068 0.5557 0.7251
vn -0.2096 0.5627 0.7997
vn -0.5980 0.5656 0.5678
vn -0.8123 0.5726 0.1107
vn -0.7190 0.5672 -0.4016
vn -0.3785 0.5760 -0.7246
vn 0.2611 0.5808 -0.7710
vn 0.5914 0.5728 -0.5676
vn 0.6288 0.5626 0.5368
vn 0.2318 0.5565 0.7979
vn -0.2203 0.5557 0.8017
vn -0.7112 0.5627 0.4214
vn -0.8245 0.5656 -0.0165
vn -0.6555 0.5726 -0.4923
vn -0.2291 0.5672 -0.7910
vn 0.2402 0.5760 -0.7814
vn 0.7277 0.5808 -0.3648
vn 0.8196 0.5728 0.0120
usemtl texturajuanjo
s off
f 1/1/1 11/2/1 2/3/1
f 2/3/2 11/2/2 3/4/2
f 3/4/3 11/2/3 4/5/3
f 4/5/4 11/2/4 5/6/4
f 5/6/5 11/2/5 6/7/5
f 6/7/6 11/2/6 7/8/6
f 7/8/7 11/2/7 8/9/7
f 8/9/8 11/2/8 9/10/8
f 9/10/9 11/2/9 10/11/9
f 10/11/10 11/2/10 1/1/10
f 13/12/11 14/13/11 12/14/11
f 15/15/12 16/16/12 14/13/12
f 17/17/13 18/18/13 16/16/13
f 19/19/14 20/20/14 18/18/14
f 21/21/15 22/22/15 20/20/15
f 23/23/16 24/24/16 22/22/16
f 25/25/17 12/14/17 24/24/17
f 22/22/18 24/24/18 14/13/18
f 26/26/19 36/27/19 27/28/19
f 27/28/20 36/27/20 28/29/20
f 28/29/21 36/27/21 29/30/21
f 29/30/22 36/27/22 30/31/22
f 30/31/23 36/27/23 31/32/23
f 31/32/24 36/27/24 32/33/24
f 32/33/25 36/27/25 33/34/25
f 33/34/26 36/27/26 34/35/26
f 34/35/27 36/27/27 35/36/27
f 35/36/28 36/27/28 26/26/28
f 37/37/29 47/38/29 38/39/29
f 38/39/30 47/38/30 39/40/30
f 39/40/31 47/38/31 40/41/31
f 40/41/32 47/38/32 41/42/32
f 41/42/33 47/38/33 42/43/33
f 42/43/34 47/38/34 43/44/34
f 43/44/35 47/38/35 44/45/35
f 44/45/36 47/38/36 45/46/36
f 45/46/37 47/38/37 46/47/37
f 46/47/38 47/38/38 37/37/38
f 48/48/39 58/49/39 49/50/39
f 49/50/40 58/49/40 50/51/40
f 50/51/41 58/49/41 51/52/41
f 51/52/42 58/49/42 52/53/42
f 52/53/43 58/49/43 53/54/43
f 53/54/44 58/49/44 54/55/44
f 54/55/45 58/49/45 55/56/45
f 55/56/46 58/49/46 56/57/46
f 56/57/47 58/49/47 57/58/47
f 57/58/48 58/49/48 48/48/48
f 59/59/49 69/60/49 60/61/49
f 60/61/50 69/60/50 61/62/50
f 61/62/51 69/60/51 62/63/51
f 62/63/52 69/60/52 63/64/52
f 63/64/53 69/60/53 64/65/53
f 64/65/54 69/60/54 65/66/54
f 65/66/55 69/60/55 66/67/55
f 66/67/56 69/60/56 67/68/56
f 67/68/57 69/60/57 68/69/57
f 68/69/58 69/60/58 59/59/58
f 13/12/11 15/15/11 14/13/11
f 15/15/12 17/17/12 16/16/12
f 17/17/13 19/19/13 18/18/13
f 19/19/14 21/21/14 20/20/14
f 21/21/15 23/23/15 22/22/15
f 23/23/16 25/25/16 24/24/16
f 25/25/17 13/12/17 12/14/17
f 24/24/18 12/14/18 14/13/18
f 14/13/18 16/16/18 18/18/18
f 18/18/18 20/20/18 14/13/18
f 20/20/18 22/22/18 14/13/18
