# Blender v2.90.0 Alpha OBJ File: 'Faro Rocas Arboles lol.blend'
# www.blender.org
mtllib Lighthouse_ROTATIONPIECE.mtl
o Cylinder.004_Cylinder.022
v -9.027102 13.561094 -1.069413
v -9.027102 13.900391 -1.069413
v -7.994673 13.561094 -0.473340
v -7.994673 13.900391 -0.473340
v -7.994673 13.561094 0.718806
v -7.994673 13.900391 0.718806
v -9.027102 13.561094 1.314878
v -9.027102 13.900391 1.314878
v -10.059530 13.561094 0.718805
v -10.059530 13.900391 0.718805
v -10.059530 13.561094 -0.473340
v -10.059530 13.900391 -0.473340
v -9.984387 13.835019 0.399825
v -9.984387 15.011445 0.399825
v -9.984387 13.835019 -0.154359
v -9.984387 15.011445 -0.154359
v -9.761416 13.835019 0.399825
v -9.761416 15.011445 0.399825
v -9.761416 13.835019 -0.154359
v -9.761416 15.011445 -0.154359
v -8.292456 13.835019 0.399825
v -8.292456 15.011445 0.399825
v -8.292456 13.835019 -0.154359
v -8.292456 15.011445 -0.154359
v -8.069485 13.835019 0.399825
v -8.069485 15.011445 0.399825
v -8.069485 13.835019 -0.154359
v -8.069485 15.011445 -0.154359
vt 0.163508 0.829504
vt 0.164275 0.829248
vt 0.164275 0.829504
vt 0.163508 0.829248
vt 0.164275 0.828992
vt 0.163508 0.828992
vt 0.164275 0.828736
vt 0.163508 0.828736
vt 0.164275 0.828480
vt 0.162466 0.829846
vt 0.163019 0.829527
vt 0.163019 0.830165
vt 0.163508 0.828480
vt 0.164275 0.828224
vt 0.163508 0.828224
vt 0.164275 0.827968
vt 0.163777 0.829527
vt 0.163409 0.829527
vt 0.163409 0.830165
vt 0.499845 0.840218
vt 0.497480 0.841569
vt 0.497480 0.837192
vt 0.496630 0.837736
vt 0.498463 0.841331
vt 0.496099 0.838305
vt 0.498463 0.836955
vt 0.499313 0.840788
vt 0.499444 0.838691
vt 0.497079 0.840041
vt 0.497079 0.835665
vt 0.496229 0.836208
vt 0.498062 0.839804
vt 0.495697 0.836778
vt 0.498062 0.835427
vt 0.498912 0.839260
vt 0.485284 0.838528
vt 0.485284 0.838519
vt 0.485311 0.838519
vt 0.162650 0.830165
vt 0.162650 0.829527
vt 0.163203 0.829846
vt 0.163508 0.827968
vt 0.163225 0.829846
vt 0.163777 0.830165
vt 0.163962 0.829846
vn 0.5000 0.0000 -0.8660
vn 1.0000 0.0000 0.0000
vn 0.5000 0.0000 0.8660
vn -0.5000 0.0000 0.8660
vn 0.0000 1.0000 0.0000
vn -1.0000 0.0000 0.0000
vn -0.5000 0.0000 -0.8660
vn 0.0000 -1.0000 0.0000
vn 0.0000 0.0000 -1.0000
vn 0.0000 0.0000 1.0000
usemtl texturajuanjo
s off
f 2/1/1 3/2/1 1/3/1
f 4/4/2 5/5/2 3/2/2
f 6/6/3 7/7/3 5/5/3
f 8/8/4 9/9/4 7/7/4
f 2/10/5 10/11/5 6/12/5
f 10/13/6 11/14/6 9/9/6
f 12/15/7 1/16/7 11/14/7
f 9/17/8 11/18/8 3/19/8
f 14/20/6 15/21/6 13/22/6
f 16/23/9 19/24/9 15/21/9
f 20/25/2 17/26/2 19/24/2
f 18/27/10 13/22/10 17/26/10
f 16/23/5 18/27/5 20/25/5
f 22/28/6 23/29/6 21/30/6
f 24/31/9 27/32/9 23/29/9
f 28/33/2 25/34/2 27/32/2
f 26/35/10 21/30/10 25/34/10
f 24/31/5 26/35/5 28/33/5
f 2/36/1 4/37/1 3/38/1
f 4/4/2 6/6/2 5/5/2
f 6/6/3 8/8/3 7/7/3
f 8/8/4 10/13/4 9/9/4
f 6/12/5 4/39/5 2/10/5
f 2/10/5 12/40/5 10/11/5
f 10/11/5 8/41/5 6/12/5
f 10/13/6 12/15/6 11/14/6
f 12/15/7 2/42/7 1/16/7
f 11/18/8 1/43/8 3/19/8
f 3/19/8 5/44/8 7/45/8
f 7/45/8 9/17/8 3/19/8
f 14/20/6 16/23/6 15/21/6
f 16/23/9 20/25/9 19/24/9
f 20/25/2 18/27/2 17/26/2
f 18/27/10 14/20/10 13/22/10
f 16/23/5 14/20/5 18/27/5
f 22/28/6 24/31/6 23/29/6
f 24/31/9 28/33/9 27/32/9
f 28/33/2 26/35/2 25/34/2
f 26/35/10 22/28/10 21/30/10
f 24/31/5 22/28/5 26/35/5
